<?xml version="1.0" encoding="utf-8"?>
<!-- Generator: Adobe Illustrator 22.1.0, SVG Export Plug-In . SVG Version: 6.00 Build 0)  -->
<svg version="1.1" id="Capa_1" xmlns="http://www.w3.org/2000/svg" xmlns:xlink="http://www.w3.org/1999/xlink" x="0px" y="0px"
	 viewBox="0 0 497.6 497.6" style="enable-background:new 0 0 497.6 497.6;" xml:space="preserve">
<g>
	<path d="M420.4,157.7l-1.6-0.9c-4.1-2.3-11.8-3.9-18.4-3.9c-23.6,0-36.3,18.6-36.3,36.1c0,12.8,7.5,21.3,18.7,21.3
		c7,0,13-2.7,17.6-8c2.3,5.1,7.1,8,13.6,8c17.6,0,30-15.2,30-36.9c0-25.6-19.4-44.2-46.1-44.2c-32.2,0-56.4,24.7-56.4,57.4
		c0,31.5,23.9,47.9,47.5,47.9c11.1,0,18.8-1.5,27.4-5.4l2.1-0.9l-4.2-13.6l-2.8,1.5c-5.1,2.7-12.5,4.3-19.7,4.3
		c-21.1,0-34.2-13.4-34.2-35.1c0-27.7,19.5-42.1,38.7-42.1c19.3,0,31.8,12,31.8,30.6c0,14.8-6.7,21.7-11.2,21.7h-0.1
		c-0.8,0-0.9-0.3-1-0.4c-0.4-0.5-1.2-2.4-0.1-9.1L420.4,157.7z M397.9,180.7c-1.1,7.4-6,12.9-9.6,12.9c-1.1,0-4.6,0-4.6-6.3
		c0-9.8,6.4-17.8,14.4-17.8c0.5,0,1,0,1.5,0.1L397.9,180.7z"/>
	<path d="M421.7,378.6c0,2.4-0.7,4.5-1.6,6.5L314.5,279.6l39.5-39.5c-2.3-1.7-4.4-3.5-6.5-5.4c-5.4-4.9-10.1-10.3-14.1-16.2
		L230.4,321.5c-2.5,2.5-6.7,2.5-9.2,0L57.3,157.7h274.9c0.3-10.3,11.9-20.3,14.8-29.9H44.8C20.1,127.8,0,147.9,0,172.6v206
		c0,24.7,20.1,44.8,44.8,44.8h362c24.7,0,44.8-20.1,44.8-44.8V225.3c-9.3,2.9-18.9,11.4-29.9,11.8L421.7,378.6L421.7,378.6z
		 M31.5,385.1c-1-2-1.6-4.1-1.6-6.5v-206c0-0.1,0-0.1,0-0.2L137,279.6L31.5,385.1z M65.3,393.5l92.9-92.9l41.9,41.9
		c6.9,6.9,16,10.7,25.7,10.7c9.7,0,18.8-3.8,25.7-10.7l41.9-41.9l92.9,92.9H65.3z"/>
</g>
</svg>
